<?xml version="1.0" encoding="utf-8"?>
<svg width="250" height="47" viewBox="0 0 128.927 24.542" xmlns="http://www.w3.org/2000/svg">
  <path d="M 4.646 19.232 Q 4.646 19.232 4.423 19.104 Q 4.2 18.976 4.2 18.536 Q 4.2 18.096 4.546 17.532 Q 4.892 16.968 4.977 16.338 Q 5.062 15.708 5.062 12.658 Q 5.062 9.608 4.996 9.13 Q 4.93 8.651 4.551 8.073 Q 4.172 7.496 4.172 6.998 Q 4.172 6.501 4.693 6.316 Q 5.214 6.132 6.37 6.132 L 6.748 6.132 Q 7.544 6.132 7.918 6.397 Q 8.293 6.662 8.293 7.23 Q 8.293 7.467 7.98 8.116 Q 7.667 8.765 7.62 9.224 Q 7.573 9.684 7.573 12.9 Q 7.573 16.116 7.653 16.684 Q 7.734 17.252 8.032 17.769 Q 8.33 18.285 8.33 18.768 Q 8.33 19.507 6.843 19.507 L 6.464 19.507 Q 6.085 19.488 5.588 19.488 Q 5.091 19.488 4.646 19.232 Z" style="fill: rgb(8, 17, 49); paint-order: fill; stroke-width: 0px; white-space: pre;"/>
  <path d="M 19.759 9.333 Q 19.759 9.333 19.778 9.57 Q 19.778 9.949 20.308 10.906 Q 20.517 11.285 20.687 11.285 Q 21.104 11.285 21.805 10.347 Q 22.241 9.769 22.241 9.191 L 22.241 8.935 Q 22.241 8.396 21.871 8.026 Q 21.502 7.657 21.18 7.657 L 20.943 7.657 Q 20.488 7.657 20.119 8.088 Q 19.75 8.519 19.75 9.087 L 19.75 9.286 Z M 18.253 16.002 Q 18.253 16.864 18.949 17.56 Q 19.645 18.257 20.403 18.257 L 20.678 18.257 Q 21.445 18.257 22.279 17.726 Q 22.601 17.518 22.601 17.366 L 22.601 17.319 Q 22.601 17.224 22.042 16.618 Q 21.265 15.689 20.522 14.614 Q 19.778 13.539 19.693 13.539 Q 19.38 13.539 18.66 14.534 Q 18.272 15.064 18.272 15.614 L 18.253 15.775 Z M 20.195 19.734 L 19.92 19.734 Q 18.357 19.734 17.272 18.735 Q 16.188 17.736 16.188 16.258 L 16.188 15.974 Q 16.188 14.553 17.703 13.179 Q 18.452 12.497 18.452 12.275 Q 18.452 12.052 18.059 11.119 Q 17.666 10.186 17.666 9.475 Q 17.666 8.149 18.618 7.325 Q 19.57 6.501 20.82 6.501 Q 22.07 6.501 22.918 7.221 Q 23.766 7.941 23.766 9.144 Q 23.766 9.996 23.141 11.593 Q 22.516 13.189 22.516 13.392 Q 22.516 13.596 23.046 14.027 Q 23.576 14.458 24.135 14.458 Q 24.202 14.449 24.552 13.956 Q 25.338 12.838 26.163 12.838 L 26.163 12.838 Q 26.996 12.838 26.996 13.444 Q 26.996 13.482 26.395 14.842 Q 25.793 16.201 25.793 16.694 Q 25.793 17.186 26.442 17.982 Q 27.091 18.778 27.091 18.958 L 27.091 19.062 Q 27.091 19.308 26.636 19.308 L 25.016 19.1 Q 24.874 19.1 24.372 19.19 Q 23.87 19.28 23.396 19.313 Q 22.923 19.346 21.909 19.54 Q 20.896 19.734 20.195 19.734 Z" style="fill: rgb(248, 24, 148); paint-order: fill; stroke-width: 0px; white-space: pre;"/>
  <path d="M 37.127 12.535 Q 37.127 15.206 37.989 16.362 Q 39.002 17.736 40.793 17.736 Q 41.532 17.736 42.777 17.243 Q 44.023 16.75 44.203 16.75 Q 44.847 16.75 44.847 17.347 L 44.847 17.556 Q 44.847 17.849 44.444 18.299 Q 44.042 18.749 43.265 19.1 Q 41.967 19.687 40.423 19.687 L 40.12 19.687 Q 38.983 19.687 37.771 19.175 Q 34.437 17.764 34.437 12.952 L 34.437 12.63 Q 34.437 11.323 34.853 10.025 Q 35.27 8.727 35.985 7.927 Q 36.701 7.126 37.885 6.596 Q 39.069 6.065 40.092 6.065 L 40.689 6.065 Q 42.905 6.065 43.81 6.671 Q 44.714 7.278 44.714 8.178 Q 44.714 8.755 44.492 9.021 Q 44.269 9.286 43.928 9.286 Q 43.587 9.286 42.484 8.755 Q 41.38 8.225 41.011 8.14 Q 40.603 8.045 40.215 8.045 Q 39.552 8.045 38.946 8.329 Q 37.127 9.201 37.127 12.535 Z" style="fill: rgb(8, 17, 49); paint-order: fill; stroke-width: 0px; white-space: pre;"/>
  <path d="M 49.19 12.44 L 49.19 13.198 Q 49.19 14.183 49.474 15.206 Q 50.241 18.029 52.619 18.029 Q 54.068 18.029 54.94 16.892 Q 55.319 16.4 55.594 15.438 Q 55.868 14.477 55.868 13.624 L 55.887 13.321 L 55.887 12.563 Q 55.887 11.654 55.631 10.641 Q 55.158 8.755 53.964 8.102 Q 53.32 7.751 52.666 7.751 L 52.373 7.751 Q 50.952 7.751 50.024 9.068 Q 49.721 9.504 49.455 10.432 Q 49.19 11.36 49.19 12.44 Z M 58.577 12.402 L 58.577 13.056 Q 58.577 14.477 58.146 15.798 Q 57.715 17.12 56.996 17.949 Q 56.276 18.778 55.125 19.308 Q 53.974 19.838 52.648 19.838 Q 51.331 19.829 50.156 19.355 Q 46.67 17.934 46.67 13.047 L 46.67 12.611 Q 46.67 11.029 47.13 9.745 Q 47.589 8.462 48.323 7.676 Q 49.057 6.889 50.142 6.444 Q 51.227 5.999 52.496 5.999 L 52.723 5.999 Q 55.385 5.999 57.024 7.761 Q 57.659 8.433 58.118 9.693 Q 58.577 10.953 58.577 12.402 Z" style="fill: rgb(8, 17, 49); paint-order: fill; stroke-width: 0px; white-space: pre;"/>
  <path d="M 74.784 18.077 Q 74.784 18.73 74.453 19.024 Q 74.121 19.317 73.359 19.317 Q 72.596 19.317 72.179 18.702 Q 71.961 18.38 71.961 17.281 L 71.98 16.836 L 72.009 16.39 Q 72.047 15.794 72.047 15.472 Q 72.047 10.792 71.687 10.792 Q 71.516 10.792 70.209 13.909 Q 68.902 17.025 68.703 17.3 Q 68.295 17.868 67.689 17.868 Q 67.083 17.868 66.685 17.158 Q 66.505 16.845 65.193 13.771 Q 63.881 10.697 63.654 10.697 Q 63.303 10.697 63.303 16.921 Q 63.303 18.389 63.066 18.673 Q 62.65 19.166 61.835 19.166 Q 61.428 19.166 61.177 18.943 Q 60.926 18.721 60.926 18.441 Q 60.926 18.162 61.072 17.603 Q 61.219 17.044 61.295 16.381 Q 61.371 15.718 61.371 14.098 L 61.38 13.605 L 61.447 12.118 Q 61.522 10.148 61.522 9.674 Q 61.522 9.201 61.456 8.708 L 61.229 7.515 Q 61.229 6.416 62.583 6.416 Q 63.72 6.416 64.611 7.6 Q 65.33 8.557 66.519 11.252 Q 67.708 13.946 67.964 13.946 L 68.163 13.662 L 69.29 11.171 Q 70.796 7.893 70.9 7.742 Q 71.753 6.435 73.193 6.435 Q 73.988 6.435 74.301 6.804 Q 74.472 7.003 74.472 7.382 L 74.424 7.732 Q 74.386 8.102 74.367 8.604 L 74.358 9.068 L 74.367 9.532 Q 74.367 10.034 74.367 10.536 L 74.415 14.581 Q 74.415 16.078 74.457 16.452 Q 74.5 16.826 74.642 17.395 Q 74.784 17.963 74.784 18.077 Z" style="fill: rgb(8, 17, 49); paint-order: fill; stroke-width: 0px; white-space: pre;"/>
  <path d="M 80.417 11.692 Q 80.417 12.421 80.573 12.616 Q 80.729 12.81 81.364 12.81 L 82.169 12.81 Q 83.401 12.81 84.04 12.17 Q 84.679 11.531 84.679 10.413 L 84.679 10.233 Q 84.679 9.04 83.997 8.414 Q 83.315 7.789 82.055 7.789 L 81.648 7.789 Q 81.032 7.789 80.762 7.927 Q 80.492 8.064 80.492 8.414 Q 80.445 8.793 80.445 8.888 L 80.436 9.144 Q 80.436 9.523 80.436 9.911 L 80.426 10.157 L 80.426 11.01 L 80.417 11.266 Z M 78.503 19.469 Q 77.452 19.469 77.452 18.683 Q 77.452 18.304 77.793 16.826 Q 77.935 16.21 77.935 14.894 L 77.944 14.666 Q 77.954 14.439 77.954 14.221 L 77.973 13.321 L 77.973 11.531 Q 77.973 9.04 77.949 8.443 Q 77.925 7.846 77.793 7.358 Q 77.66 6.87 77.66 6.61 Q 77.66 6.349 78.011 6.24 Q 78.361 6.132 79.706 6.132 L 80.36 6.122 Q 80.587 6.113 80.805 6.113 L 81.26 6.094 L 82.633 6.094 Q 86.034 6.094 86.981 8.414 Q 87.275 9.144 87.275 9.977 L 87.275 10.214 Q 87.275 12.166 85.911 13.331 Q 85.077 14.041 83.628 14.288 Q 82.179 14.534 81.383 14.955 Q 80.587 15.377 80.587 15.917 Q 80.587 16.135 80.696 16.613 Q 80.805 17.091 80.805 17.835 Q 80.805 18.579 80.36 19.024 Q 79.915 19.469 78.93 19.469 Z" style="fill: rgb(8, 17, 49); paint-order: fill; stroke-width: 0px; white-space: pre;"/>
  <path d="M 92.045 13.729 L 92.045 13.842 Q 92.045 14.041 93.343 14.041 L 94.148 14.041 Q 95.332 14.041 95.332 13.861 L 95.332 13.748 Q 95.332 12.905 93.997 9.428 Q 93.817 8.954 93.75 8.954 Q 93.731 8.954 93.651 9.158 Q 93.57 9.362 93.457 9.608 Q 92.045 12.668 92.045 13.729 Z M 99.548 17.925 L 99.548 18.114 Q 99.548 18.967 99.065 19.28 Q 98.752 19.479 97.994 19.479 L 97.767 19.479 Q 96.99 19.479 96.725 19.014 Q 96.592 18.787 96.431 17.688 Q 96.27 16.589 95.872 16.173 Q 95.474 15.756 94.376 15.756 Q 91.875 15.756 91.439 16.144 Q 91.003 16.533 90.814 17.721 Q 90.624 18.91 90.53 19.052 Q 90.283 19.431 89.545 19.431 Q 88.806 19.431 88.526 19.033 Q 88.247 18.635 88.247 17.982 Q 88.247 17.688 89.042 16.097 Q 89.118 15.955 90.473 12.028 Q 91.827 8.102 92.202 7.33 Q 92.576 6.558 92.926 6.34 Q 93.277 6.122 93.973 6.122 Q 94.669 6.122 94.982 6.458 Q 95.294 6.795 95.782 7.837 Q 96.27 8.879 97.127 11.256 Q 97.985 13.634 98.383 14.851 Q 98.78 16.068 98.847 16.229 Q 99.548 17.84 99.548 17.925 Z" style="fill: rgb(8, 17, 49); paint-order: fill; stroke-width: 0px; white-space: pre;"/>
  <path d="M 102.09 19.346 Q 102.081 19.346 102.062 19.346 Q 101.266 19.346 101.266 18.73 Q 101.266 18.408 101.579 17.385 Q 101.721 16.921 101.721 15.528 L 101.74 13.539 L 101.74 12.734 L 101.749 11.521 Q 101.749 9.371 101.716 8.945 Q 101.683 8.519 101.465 7.865 Q 101.247 7.211 101.247 6.96 Q 101.247 6.709 101.441 6.553 Q 101.635 6.397 102.351 6.397 Q 103.066 6.397 103.625 6.728 Q 104.184 7.06 104.752 7.723 Q 106.097 9.276 107.338 11.218 Q 109.829 15.121 109.952 15.121 Q 110.132 15.121 110.132 13.274 L 110.151 12.497 Q 110.161 12.099 110.161 10.811 Q 110.161 9.523 110.057 8.618 Q 109.952 7.713 109.952 7.287 Q 109.952 6.861 110.289 6.586 Q 110.625 6.312 111.241 6.312 Q 111.856 6.312 112.131 6.473 Q 112.633 6.766 112.633 7.571 L 112.624 7.903 Q 112.605 8.187 112.501 8.613 L 112.415 8.954 Q 112.292 9.447 112.235 9.76 Q 112.178 10.072 112.178 13.984 Q 112.178 17.897 111.961 18.834 Q 111.828 19.393 111.364 19.393 Q 110.227 19.393 109.488 18.55 Q 109.09 18.105 108.034 16.4 Q 106.978 14.695 106.675 14.231 Q 104.25 10.574 103.918 10.574 Q 103.7 10.574 103.7 12.426 Q 103.7 14.278 103.748 15.5 Q 103.795 16.722 103.876 17.219 Q 103.956 17.717 103.956 17.887 Q 103.956 19.346 102.09 19.346 Z" style="fill: rgb(8, 17, 49); paint-order: fill; stroke-width: 0px; white-space: pre;"/>
  <path d="M 124.247 6.198 L 124.503 6.198 Q 125.498 6.198 125.498 6.747 Q 125.498 7.221 124.934 8.002 Q 124.371 8.784 123.835 9.826 Q 123.3 10.868 122.68 11.943 Q 122.059 13.018 121.628 14.079 Q 121.197 15.14 121.197 16.457 Q 121.197 16.883 121.354 17.537 Q 121.51 18.19 121.51 18.635 Q 121.51 19.081 121.036 19.393 Q 120.78 19.564 120.203 19.564 L 119.956 19.564 Q 118.886 19.564 118.592 19.355 Q 118.299 19.147 118.299 18.541 Q 118.299 18.418 118.554 17.456 Q 118.81 16.495 118.81 15.566 Q 118.81 14.638 118.436 13.857 Q 118.062 13.075 116.807 10.911 Q 115.552 8.746 115.4 8.557 Q 114.368 7.24 114.368 6.908 Q 114.368 6.577 114.756 6.463 Q 115.305 6.302 116.272 6.302 Q 117.238 6.302 117.692 6.908 Q 117.797 7.041 118.062 7.728 Q 118.327 8.414 119.222 10.167 Q 120.117 11.919 120.127 11.919 Q 120.582 11.919 121.86 9.258 Q 122.126 8.699 122.306 7.87 Q 122.486 7.041 122.59 6.87 Q 123.007 6.198 124.247 6.198 Z" style="fill: rgb(8, 17, 49); paint-order: fill; stroke-width: 0px; white-space: pre;"/>
</svg>